# xmcd
#
# Track frame offsets:
#	150
#	16651
#	32271
#	45555
#	61585
#	77559
#	100089
#	116403
#	131403
#	147476
#	160826
#	175337
#
# Disc length: 2578 seconds
#
# Revision: 0
# Processed by: cddbd v1.5.2PL0 Copyright (c) Steve Scherf et al.
# Submitted via: SynApp - FreeCDDB Version: 2.4
#
DISCID=860a100c
DTITLE=Glenn Miller - The Best Of Glenn Miller
DYEAR=1970
DGENRE=Swing
TTITLE0=In The Mood
TTITLE1=Along The Santa Fe Trail
TTITLE2=Johnson Rag
TTITLE3=Chattanooga Choo Choo
TTITLE4=Sunrise Serenade
TTITLE5=Anvil Chorus
TTITLE6=St. Louis Blues March
TTITLE7=Don't Sit Under The Apple Tre
TTITLE8=Tuxedo Junction
TTITLE9=Stairway To The Stars
TTITLE10=Juke Box Saturday Night
TTITLE11=Song Of The Volga Boatmen
EXTD=
EXTT0=
EXTT1=
EXTT2=
EXTT3=
EXTT4=
EXTT5=
EXTT6=
EXTT7=
EXTT8=
EXTT9=
EXTT10=
EXTT11=
PLAYORDER=
